<svg width="48" height="48" viewBox="0 0 48 48" fill="none" xmlns="http://www.w3.org/2000/svg">
<rect width="48" height="48" rx="8" fill="white"/>
<path d="M24 11L23.5601 11.1356L5.99387 17.1119L2 18.449L4.32577 19.2053V31.6915C3.48681 32.1867 2.92047 33.09 2.92047 34.146C2.92047 34.9029 3.21659 35.6289 3.74368 36.1641C4.27077 36.6993 4.98566 37 5.73108 37C6.47649 37 7.19138 36.6993 7.71847 36.1641C8.24556 35.6289 8.54168 34.9029 8.54168 34.146C8.54168 33.09 7.97534 32.1867 7.13638 31.6915V20.1899L9.94698 21.1246V28.438C9.94698 29.6081 10.6496 30.5785 11.4844 31.2492C12.3191 31.9156 13.3562 32.3865 14.6013 32.8089C17.0943 33.6508 20.3799 34.146 24 34.146C27.6201 34.146 30.9057 33.6523 33.3987 32.8075C34.6438 32.3865 35.6809 31.9156 36.5156 31.2477C37.3504 30.5785 38.053 29.6081 38.053 28.438V21.1246L42.0061 19.7861L46 18.449L42.0047 17.1104L24.4385 11.1356L24 11ZM24 13.9896L37.1747 18.449L24 22.9083L10.8253 18.449L24 13.9896ZM12.7576 22.1064L23.5615 25.7623L24 25.8965L24.4399 25.7609L35.2424 22.1049V28.438C35.2424 28.4523 35.248 28.6178 34.8026 28.9731C34.3585 29.3299 33.5617 29.7794 32.5189 30.1333C30.4363 30.8368 27.3657 31.292 24 31.292C20.6343 31.292 17.5637 30.8382 15.4797 30.1318C14.4397 29.7794 13.6415 29.3284 13.1974 28.9731C12.7506 28.6164 12.7576 28.4523 12.7576 28.438V22.1064Z" fill="#E3536D"/>
</svg>
